<svg width="28" height="28" viewBox="0 0 28 28" fill="none" xmlns="http://www.w3.org/2000/svg">
<mask id="mask0_4483_180" style="mask-type:luminance" maskUnits="userSpaceOnUse" x="0" y="0" width="28" height="28">
<path d="M27.5 27.5V0.50001H0.5V27.5H27.5Z" fill="white" stroke="white"/>
</mask>
<g mask="url(#mask0_4483_180)">
<path d="M5.75555 21.7425C5.08344 21.0704 5.08344 19.9807 5.75555 19.3086L8.28342 16.7807C8.95553 16.1085 10.0452 16.1085 10.7173 16.7807C11.3895 17.4528 11.3895 18.5425 10.7173 19.2146L8.18947 21.7425C7.51736 22.4146 6.42766 22.4146 5.75555 21.7425Z" stroke="white" stroke-miterlimit="10" stroke-linecap="round" stroke-linejoin="round"/>
<path d="M16.9952 23.2571L16.1177 22.3795" stroke="white" stroke-miterlimit="10" stroke-linecap="round" stroke-linejoin="round"/>
<path d="M19.8892 21.2827L16.5122 17.9058" stroke="white" stroke-miterlimit="10" stroke-linecap="round" stroke-linejoin="round"/>
<path d="M22.3233 18.8489L18.853 15.3786" stroke="white" stroke-miterlimit="10" stroke-linecap="round" stroke-linejoin="round"/>
<path d="M14.269 25.3987L14.5613 25.691C15.2334 26.3631 16.3231 26.3631 16.9953 25.691C17.6674 25.0189 17.6674 23.9292 16.9953 23.2571L17.455 23.7168C18.1271 24.3889 19.2168 24.3889 19.8889 23.7168C20.5611 23.0447 20.5611 21.955 19.8889 21.2828L20.3488 21.7427C21.0209 22.4148 22.1106 22.4148 22.7827 21.7427C23.4548 21.0705 23.4548 19.9808 22.7827 19.3087L22.323 18.849C22.9951 19.521 24.0847 19.521 24.7568 18.8489C25.429 18.1768 25.429 17.0871 24.7568 16.415L23.7314 15.3895" stroke="white" stroke-miterlimit="10" stroke-linecap="round" stroke-linejoin="round"/>
<path d="M6.21539 18.8489C5.54328 19.5211 4.45358 19.5211 3.78147 18.8489C3.1093 18.1768 3.1093 17.0871 3.78147 16.415L5.84953 14.3469C6.52164 13.6748 7.61134 13.6748 8.28345 14.3469C8.95561 15.019 8.95561 16.1087 8.28345 16.7808" stroke="white" stroke-miterlimit="10" stroke-linecap="round" stroke-linejoin="round"/>
<path d="M10.7172 19.2148C11.3893 18.5427 12.479 18.5427 13.1511 19.2148C13.8232 19.8869 13.8233 20.9766 13.1512 21.6487L11.0831 23.7169C10.411 24.389 9.32125 24.389 8.64914 23.7169C7.97698 23.0448 7.97698 21.955 8.64914 21.2829" stroke="white" stroke-miterlimit="10" stroke-linecap="round" stroke-linejoin="round"/>
<path d="M13.151 21.6487C13.8231 20.9766 14.9128 20.9766 15.5849 21.6487C16.257 22.3208 16.257 23.4105 15.5849 24.0826L13.9766 25.691C13.3045 26.3631 12.2148 26.3631 11.5427 25.691C10.8705 25.0188 10.8705 23.9291 11.5427 23.257" stroke="white" stroke-miterlimit="10" stroke-linecap="round" stroke-linejoin="round"/>
<path d="M3.4834 14.6044L4.53766 15.6587" stroke="white" stroke-miterlimit="10" stroke-linecap="round" stroke-linejoin="round"/>
<path d="M14.0143 5.65445L14 5.64007L13.9857 5.65445L12.1507 3.81941C9.4649 1.1336 5.11035 1.1336 2.42454 3.81941H2.42449C-0.192583 6.43653 -0.25952 10.638 2.22362 13.3362" stroke="white" stroke-miterlimit="10" stroke-linecap="round" stroke-linejoin="round"/>
<path d="M24.7546 3.1171C22.0651 1.15868 18.2762 1.39285 15.8495 3.8195L14.0145 5.65454L14.0002 5.64016L13.9858 5.65454" stroke="white" stroke-miterlimit="10" stroke-linecap="round" stroke-linejoin="round"/>
<path d="M21.9409 13.6596L23.7318 15.3894L25.5757 13.5455C28.0919 11.0292 28.2508 7.04836 26.0523 4.34718" stroke="white" stroke-miterlimit="10" stroke-linecap="round" stroke-linejoin="round"/>
<path d="M13.8691 5.78047L10.2818 9.3678C9.96141 9.68816 9.96141 10.2076 10.2818 10.5279C11.3056 11.5518 12.9657 11.5518 13.9896 10.5279L16.3031 8.21439L20.6549 12.4177" stroke="white" stroke-miterlimit="10" stroke-linecap="round" stroke-linejoin="round"/>
</g>
</svg>
