<svg width="139" height="148" viewBox="0 0 139 148" fill="none" xmlns="http://www.w3.org/2000/svg">
<path d="M69.3612 68.6856C61.045 60.8811 54.5053 51.9616 52.9435 40.4016C51.577 30.3476 54.5638 21.2326 61.2207 13.6824C65.3593 8.98791 70.4154 5.07586 75.0225 0.792182C76.35 -0.44011 77.3456 -0.146702 78.4973 1.06603C84.1586 6.99277 87.9458 13.8975 89.3318 21.9954C91.4402 34.2792 87.653 45.1938 81.2499 55.4238C79.3368 58.4556 77.1503 61.3114 74.7297 64.754C70.6887 51.4922 70.9034 38.9932 75.6862 26.3182C72.4847 28.9784 68.8732 37.2915 67.2919 46.8173C66.0621 54.1915 67.1748 61.507 69.3807 68.7052L69.3612 68.6856Z" fill="white"/>
<path d="M134.993 55.9128C135.247 55.2673 135.52 54.6414 136.008 53.4678C135.071 54.0937 134.603 54.4067 133.978 54.8174C134.642 53.2917 135.208 51.9812 135.774 50.6707C135.579 50.5142 135.403 50.3381 135.208 50.1817C125.135 62.3677 114.105 72.5781 95.8134 69.3115C96.9066 67.8054 97.6289 66.6905 98.4683 65.7125C100.889 62.9154 103.427 60.216 105.789 57.3798C106.628 56.3627 108.19 55.0913 106.589 53.6438C105.281 52.4507 104.032 53.3113 102.724 54.2698C98.8978 57.0864 95.013 59.8444 90.972 62.3481C85.096 66.0059 81.1136 71.5805 76.3113 76.3141C75.5695 77.0574 74.7691 77.742 73.8516 78.3679C76.5651 70.9742 80.118 64.0694 84.8617 57.7906C91.87 48.5191 100.674 41.673 112.075 38.7585C120.254 36.6656 128.532 36.9199 136.75 38.8172C137.336 38.9541 138.214 39.893 138.156 40.3625C137.57 45.2916 136.828 50.2208 136.086 55.1304C136.028 55.4825 135.579 55.7563 135.325 56.0693C135.227 56.0106 135.13 55.9519 135.013 55.8932L134.993 55.9128Z" fill="white"/>
<path d="M42.246 69.2528C35.921 70.446 30.4549 70.3873 25.0865 68.2162C16.7898 64.8714 10.3477 59.2185 4.8621 52.3137C4.27645 51.5704 3.59319 50.9054 2.94898 50.2208C2.71472 50.3577 2.49998 50.4946 2.26573 50.6511C2.83185 51.8638 3.39798 53.0766 4.10076 54.5632C3.47606 54.2306 3.02707 53.9764 2.20716 53.5265C2.55855 54.5436 2.81233 55.2282 3.04659 55.9324C2.8709 55.991 2.6952 56.0497 2.5195 56.0888C2.28524 55.326 1.93386 54.6023 1.81673 53.8199C1.19204 49.5753 0.625912 45.3307 0.0402634 41.0862C-0.174474 39.5605 0.469738 38.9346 1.9729 38.6216C20.1085 34.9834 35.921 38.9541 48.8638 52.6463C55.8721 60.0596 60.6353 68.803 64.3639 78.2114C64.1297 78.4461 63.8954 78.6613 63.6612 78.896C62.7632 77.742 61.9042 76.5488 60.9477 75.4534C59.9911 74.3581 58.7808 73.4583 57.9023 72.2847C53.588 66.4362 47.5559 62.7197 41.6408 58.8468C39.3373 57.3407 37.2289 55.502 34.8863 54.0546C34.0469 53.546 32.5242 53.3113 31.7043 53.7416C30.2597 54.4654 31.021 55.6781 31.8214 56.617C34.4764 59.727 37.1313 62.798 39.7667 65.9276C40.5281 66.8274 41.1918 67.825 42.2655 69.292L42.246 69.2528Z" fill="white"/>
<path d="M67.1554 90.0453C63.0168 90.8473 58.9563 91.7862 54.8373 92.4121C48.3366 93.3901 41.7773 93.1945 35.3742 91.8057C21.3968 88.7544 11.714 80.4022 6.0723 67.3164C5.03765 64.9301 4.21774 62.4655 3.31975 60.0204C3.22214 59.7662 3.31975 59.4336 3.31975 59.4728C6.20895 63.1696 9.00053 67.2186 12.2802 70.8177C19.0737 78.3288 27.3313 83.3753 37.6778 84.236C41.3088 84.5294 44.9789 84.2946 48.6489 84.2946C49.3322 84.2946 50.0935 84.1773 50.7182 84.3729C56.1257 86.192 61.5137 88.0698 67.214 90.0453H67.1554Z" fill="white"/>
<path d="M71.0596 89.791C75.7252 88.3631 80.1371 87.1504 84.4514 85.6443C86.7745 84.8227 88.9023 84.4315 91.4792 84.6271C103.856 85.5269 114.905 81.9865 123.709 73.0279C127.926 68.7443 131.459 63.7955 135.735 58.6317C133.451 63.6586 131.694 68.4313 129.214 72.7932C123.436 82.945 114.573 89.2629 103.192 91.7079C92.4357 94.016 81.7574 93.0967 71.04 89.791H71.0596Z" fill="white"/>
<path d="M11.4209 103.092H15.3252L24.188 120.579H24.3832L33.0704 103.092H36.9161V125.88H33.0704V107.2H32.9532L23.6219 125.88H22.841L13.4121 107.356H13.1583V125.88H11.4599V103.092H11.4209Z" fill="white"/>
<path d="M43.085 103.092H46.9112V125.88H43.085V103.092Z" fill="white"/>
<path d="M53.0801 103.092H55.2275L70.142 119.777H70.3177V103.092H71.9965V126.427H71.0985L54.9542 107.904H54.8175V125.899H53.0801V103.112V103.092Z" fill="white"/>
<path d="M87.0673 102.583L97.7652 125.899H93.8609L90.386 118.31H80.6252L77.0332 125.899H75.1201L86.0913 102.583H87.0478H87.0673ZM81.328 116.823H89.7223L85.5837 107.806L81.328 116.823Z" fill="white"/>
<path d="M100.947 103.092H108.834C110.201 103.092 111.391 103.229 112.426 103.522C113.461 103.816 114.32 104.227 115.003 104.755C115.686 105.283 116.213 105.909 116.565 106.632C116.916 107.356 117.092 108.158 117.092 109.019C117.092 109.879 116.955 110.388 116.682 111.014C116.408 111.64 116.037 112.188 115.549 112.696C115.061 113.185 114.476 113.615 113.792 113.987C113.109 114.359 112.348 114.633 111.528 114.848L119.825 125.899H115.374L107.467 115.18H104.793V125.899H100.967V103.112L100.947 103.092ZM104.754 114.026H106.96C107.819 114.026 108.619 113.909 109.342 113.674C110.064 113.439 110.689 113.126 111.235 112.696C111.762 112.285 112.172 111.777 112.485 111.17C112.777 110.584 112.934 109.899 112.934 109.156C112.934 108.412 112.816 107.845 112.582 107.258C112.348 106.691 112.016 106.202 111.587 105.791C111.157 105.381 110.65 105.068 110.064 104.833C109.478 104.598 108.834 104.481 108.131 104.481H104.773V113.987L104.754 114.026Z" fill="white"/>
<path d="M122.89 103.092H126.716V125.88H122.89V103.092Z" fill="white"/>
<path d="M25.5748 138.183C26.1214 137.225 26.8437 136.481 27.7807 135.934C28.7178 135.386 29.7524 135.132 30.8847 135.132C32.0169 135.132 33.3834 135.464 34.379 136.11C35.3746 136.755 36.0969 137.675 36.5655 138.848H34.6523C34.3205 138.105 33.8324 137.538 33.1882 137.147C32.544 136.755 31.7827 136.54 30.9042 136.54C30.0257 136.54 29.2839 136.736 28.6006 137.147C27.9174 137.538 27.3903 138.105 26.9999 138.848C26.6094 139.592 26.4142 140.433 26.4142 141.43C26.4142 142.428 26.6094 143.249 26.9999 143.993C27.3903 144.736 27.9174 145.284 28.6006 145.694C29.2839 146.086 30.0453 146.301 30.9042 146.301C31.7632 146.301 32.5635 146.105 33.1882 145.714C33.8324 145.323 34.3205 144.755 34.6523 144.012H36.5655C36.1165 145.186 35.3746 146.086 34.379 146.731C33.3834 147.377 32.2121 147.689 30.8847 147.689C29.5572 147.689 28.7178 147.416 27.7807 146.888C26.8437 146.359 26.1214 145.616 25.5748 144.658C25.0282 143.699 24.7744 142.643 24.7744 141.43C24.7744 140.217 25.0477 139.161 25.5748 138.203V138.183Z" fill="white"/>
<path d="M45.3699 147.553L42.4612 142.526H40.5285V147.553H38.9277V135.288H42.8711C43.7886 135.288 44.5695 135.445 45.2137 135.758C45.8579 136.071 46.3264 136.501 46.6388 137.049C46.9511 137.596 47.1073 138.203 47.1073 138.907C47.1073 139.611 46.873 140.491 46.385 141.137C45.8969 141.782 45.1746 142.213 44.1986 142.428L47.283 147.572H45.3699V147.553ZM40.509 141.254H42.8711C43.7301 141.254 44.3938 141.039 44.8233 140.609C45.2527 140.178 45.4675 139.611 45.4675 138.887C45.4675 138.164 45.2527 137.596 44.8233 137.205C44.3938 136.814 43.7496 136.599 42.8711 136.599H40.509V141.254Z" fill="white"/>
<path d="M51.2062 136.579V140.687H55.6767V142.017H51.2062V146.242H56.2038V147.572H49.6055V135.288H56.2038V136.618H51.2062V136.579Z" fill="white"/>
<path d="M65.8476 144.834H60.4987L59.5226 147.572H57.8438L62.2752 135.367H64.1102L68.5221 147.572H66.8432L65.8671 144.834H65.8476ZM65.3986 143.523L63.1927 137.323L60.9867 143.523H65.4181H65.3986Z" fill="white"/>
<path d="M77.99 135.288V136.599H74.6518V147.572H73.0511V136.599H69.6934V135.288H77.99Z" fill="white"/>
<path d="M81.5627 135.288V147.553H79.9619V135.288H81.5627Z" fill="white"/>
<path d="M94.4076 135.288L89.781 147.553H87.946L83.3193 135.288H85.0177L88.8635 145.87L92.7092 135.288H94.3881H94.4076Z" fill="white"/>
<path d="M97.7658 136.579V140.687H102.236V142.017H97.7658V146.242H102.763V147.572H96.165V135.288H102.763V136.618H97.7658V136.579Z" fill="white"/>
<path d="M106.883 147.24C106.239 146.946 105.751 146.555 105.38 146.046C105.009 145.538 104.833 144.951 104.813 144.286H106.512C106.57 144.853 106.805 145.342 107.215 145.733C107.625 146.125 108.23 146.32 109.03 146.32C109.831 146.32 110.397 146.125 110.826 145.753C111.256 145.381 111.49 144.873 111.49 144.286C111.49 143.699 111.353 143.445 111.099 143.152C110.846 142.858 110.514 142.643 110.123 142.486C109.733 142.33 109.206 142.174 108.562 141.997C107.761 141.782 107.098 141.567 106.629 141.372C106.141 141.156 105.731 140.824 105.38 140.374C105.028 139.924 104.853 139.318 104.853 138.555C104.853 137.792 105.028 137.303 105.36 136.775C105.692 136.266 106.18 135.856 106.785 135.582C107.41 135.308 108.113 135.151 108.893 135.151C110.045 135.151 110.982 135.445 111.705 136.012C112.427 136.579 112.856 137.342 112.934 138.301H111.178C111.119 137.831 110.865 137.42 110.436 137.068C110.006 136.716 109.421 136.54 108.718 136.54C108.015 136.54 107.507 136.716 107.078 137.068C106.649 137.42 106.453 137.89 106.453 138.516C106.453 139.142 106.57 139.318 106.824 139.611C107.078 139.885 107.39 140.1 107.761 140.257C108.132 140.413 108.64 140.57 109.323 140.765C110.123 140.98 110.787 141.215 111.275 141.43C111.763 141.645 112.193 141.978 112.544 142.428C112.895 142.878 113.071 143.484 113.071 144.266C113.071 145.049 112.915 145.421 112.603 145.949C112.29 146.477 111.822 146.907 111.197 147.24C110.572 147.572 109.85 147.729 109.011 147.729C108.171 147.729 107.488 147.592 106.844 147.298L106.883 147.24Z" fill="white"/>
</svg>
