<svg width="32" height="32" viewBox="0 0 32 32" fill="none" xmlns="http://www.w3.org/2000/svg">
<path d="M15.9999 2.01001C10.2259 2.01001 5.54492 6.69101 5.54492 12.465C5.54492 18.571 12.0089 24.309 14.7709 26.482C15.4919 27.049 16.5059 27.049 17.2279 26.482C19.9909 24.308 26.4539 18.571 26.4539 12.465C26.4549 6.69001 21.7739 2.01001 15.9999 2.01001ZM15.9999 16.33C13.7669 16.33 11.9569 14.52 11.9569 12.287C11.9569 10.054 13.7669 8.24401 15.9999 8.24401C18.2329 8.24401 20.0429 10.054 20.0429 12.287C20.0429 14.52 18.2329 16.33 15.9999 16.33Z" fill="#DE8D60"/>
<path d="M20.5511 26.0171C19.7141 26.7821 18.9441 27.4221 18.3411 27.8971C17.6751 28.4191 16.8441 28.7081 15.9991 28.7081C15.1541 28.7081 14.3231 28.4201 13.6581 27.8971C13.0541 27.4221 12.2851 26.7821 11.4471 26.0171C9.00114 26.3971 7.36914 27.0701 7.36914 27.8411C7.36914 29.0281 11.2331 29.9911 15.9991 29.9911C20.7651 29.9911 24.6291 29.0291 24.6291 27.8411C24.6291 27.0701 22.9961 26.3961 20.5511 26.0171Z" fill="#DE8D60"/>
</svg>
